# xmcd CD database file
#
# Track frame offsets:
#	150
#	18911
#	33892
#	51348
#	68416
#	83481
#	108984
#	129334
#	145611
#	162575
#	178993
#	195607
#	221203
#
# Disc length: 3200 seconds
#
# Revision: 0
# Processed by: cddbd v1.5.2PL0 Copyright (c) Steve Scherf et al.
# Submitted via: CDex 1.75
#
DISCID=ae0c7e0d
DTITLE=The Broadway Lullaby Project - Over the Moon CD1
DYEAR=2012
DGENRE=Jazz
TTITLE0=Little Sleepy Eyes
TTITLE1=Think of the Moon
TTITLE2=A Lullaby for Midnight
TTITLE3=Lucky
TTITLE4=How Much Love
TTITLE5=Onesie
TTITLE6=It's Time Little Man
TTITLE7=Lullaby to Mr Waggles
TTITLE8=Look a Rainbow
TTITLE9=Everything I do you do
TTITLE10=I love you
TTITLE11=Over the Moon
TTITLE12=A Father's Lullaby
EXTD=YEAR: 2012
EXTT0=
EXTT1=
EXTT2=
EXTT3=
EXTT4=
EXTT5=
EXTT6=
EXTT7=
EXTT8=
EXTT9=
EXTT10=
EXTT11=
EXTT12=
PLAYORDER=
